<svg id="Layer_1" enable-background="new 0 0 512 512" height="512" viewBox="0 0 512 512" width="512" xmlns="http://www.w3.org/2000/svg"><g><g><g><path d="m279.41 407.596v69.52h-60.139l-.161-69.52-.12-55.369h28.74z" fill="#ff4656"/><path d="m279.41 407.596v69.52h-23v-69.52l-34.68-55.369h26z" fill="#d93c49"/><path d="m279.41 407.596h-60.3l-.12-55.369h28.74z" fill="#99e7fa"/><path d="m279.41 407.596h-23l-34.68-55.369h26z" fill="#4dd4f7"/><path d="m7.5 318.067h211.49v159.05h-211.49z" fill="#ff4656"/><path d="m218.99 318.067v159.049h-211.49v-22h188.49v-137.049z" fill="#d93c49"/><g fill="#56788b"><ellipse cx="68.568" cy="477.112" rx="27.407" ry="27.388"/><ellipse cx="218.986" cy="477.112" rx="27.407" ry="27.388"/></g></g><g><path d="m504.5 97.03v69.52h-60.139l-.16-69.52-.12-55.37h28.739z" fill="#2bbb66"/><path d="m504.5 97.03v69.52h-23v-69.52l-34.68-55.37h26z" fill="#249e55"/><path d="m504.5 97.03h-60.299l-.12-55.37h28.739z" fill="#99e7fa"/><path d="m504.5 97.03h-23l-34.68-55.37h26z" fill="#4dd4f7"/><path d="m232.591 7.5h211.49v159.05h-211.49z" fill="#2bbb66"/><path d="m444.081 7.5v159.05h-211.49v-22h188.49v-137.05z" fill="#249e55"/><g fill="#56788b"><ellipse cx="293.658" cy="166.545" rx="27.407" ry="27.388"/><ellipse cx="444.076" cy="166.545" rx="27.407" ry="27.388"/></g></g></g><g><path d="m99.073 256.237c0 4.142 3.358 7.5 7.5 7.5h31.049c4.142 0 7.5-3.358 7.5-7.5s-3.358-7.5-7.5-7.5h-31.049c-4.142 0-7.5 3.358-7.5 7.5z"/><path d="m230.771 263.737h31.05c4.143 0 7.5-3.358 7.5-7.5s-3.357-7.5-7.5-7.5h-31.05c-4.142 0-7.5 3.358-7.5 7.5s3.357 7.5 7.5 7.5z"/><path d="m161.172 256.237c0 4.142 3.358 7.5 7.5 7.5h31.049c4.142 0 7.5-3.358 7.5-7.5s-3.358-7.5-7.5-7.5h-31.049c-4.142 0-7.5 3.358-7.5 7.5z"/><path d="m331.419 256.237c0-4.142-3.357-7.5-7.5-7.5h-31.05c-4.143 0-7.5 3.358-7.5 7.5s3.357 7.5 7.5 7.5h31.05c4.143 0 7.5-3.358 7.5-7.5z"/><path d="m393.518 256.237c0-4.142-3.357-7.5-7.5-7.5h-31.049c-4.143 0-7.5 3.358-7.5 7.5s3.357 7.5 7.5 7.5h31.049c4.142 0 7.5-3.358 7.5-7.5z"/><path d="m60.491 263.737h15.011c4.142 0 7.5-3.358 7.5-7.5s-3.358-7.5-7.5-7.5h-7.511v-9.879c0-4.142-3.358-7.5-7.5-7.5s-7.5 3.358-7.5 7.5v17.379c0 4.142 3.358 7.5 7.5 7.5z"/><path d="m432.295 248.737h-15.011c-4.143 0-7.5 3.358-7.5 7.5s3.357 7.5 7.5 7.5h7.511v9.879c0 4.142 3.357 7.5 7.5 7.5s7.5-3.358 7.5-7.5v-17.379c0-4.142-3.357-7.5-7.5-7.5z"/><path d="m432.295 296.189c-4.143 0-7.5 3.358-7.5 7.5v19.034c0 4.142 3.357 7.5 7.5 7.5s7.5-3.358 7.5-7.5v-19.034c0-4.142-3.357-7.5-7.5-7.5z"/><path d="m340.266 458.194h-20c-4.143 0-7.5 3.358-7.5 7.5s3.357 7.5 7.5 7.5h20c4.143 0 7.5-3.358 7.5-7.5s-3.358-7.5-7.5-7.5z"/><path d="m432.295 397.224c-4.143 0-7.5 3.358-7.5 7.5v20c0 4.142 3.357 7.5 7.5 7.5s7.5-3.358 7.5-7.5v-20c0-4.142-3.357-7.5-7.5-7.5z"/><path d="m432.295 346.224c-4.143 0-7.5 3.358-7.5 7.5v20c0 4.142 3.357 7.5 7.5 7.5s7.5-3.358 7.5-7.5v-20c0-4.142-3.357-7.5-7.5-7.5z"/><path d="m432.295 448.224c-4.143 0-7.5 3.358-7.5 7.5v2.471h-2.529c-4.143 0-7.5 3.358-7.5 7.5s3.357 7.5 7.5 7.5h10.029c4.143 0 7.5-3.358 7.5-7.5v-9.971c0-4.142-3.357-7.5-7.5-7.5z"/><path d="m391.266 458.194h-20c-4.143 0-7.5 3.358-7.5 7.5s3.357 7.5 7.5 7.5h20c4.143 0 7.5-3.358 7.5-7.5s-3.358-7.5-7.5-7.5z"/><path d="m60.491 117.311c4.142 0 7.5-3.358 7.5-7.5v-20c0-4.142-3.358-7.5-7.5-7.5s-7.5 3.358-7.5 7.5v20c0 4.142 3.358 7.5 7.5 7.5z"/><path d="m60.491 168.311c4.142 0 7.5-3.358 7.5-7.5v-20c0-4.142-3.358-7.5-7.5-7.5s-7.5 3.358-7.5 7.5v20c0 4.142 3.358 7.5 7.5 7.5z"/><path d="m60.491 218.345c4.142 0 7.5-3.358 7.5-7.5v-19.034c0-4.142-3.358-7.5-7.5-7.5s-7.5 3.358-7.5 7.5v19.034c0 4.142 3.358 7.5 7.5 7.5z"/><path d="m152.52 56.34h20c4.142 0 7.5-3.358 7.5-7.5s-3.358-7.5-7.5-7.5h-20c-4.142 0-7.5 3.358-7.5 7.5s3.358 7.5 7.5 7.5z"/><path d="m60.491 66.311c4.142 0 7.5-3.358 7.5-7.5v-2.471h2.529c4.142 0 7.5-3.358 7.5-7.5s-3.358-7.5-7.5-7.5h-10.029c-4.142 0-7.5 3.358-7.5 7.5v9.971c0 4.142 3.358 7.5 7.5 7.5z"/><path d="m101.52 56.34h20c4.142 0 7.5-3.358 7.5-7.5s-3.358-7.5-7.5-7.5h-20c-4.142 0-7.5 3.358-7.5 7.5s3.358 7.5 7.5 7.5z"/><path d="m254.236 348.503c-1.336-2.334-3.82-3.775-6.51-3.775h-21.241v-26.666c0-4.142-3.358-7.5-7.5-7.5h-146.996c-4.142 0-7.5 3.358-7.5 7.5s3.358 7.5 7.5 7.5h139.497v117.472c-13.238 2.908-23.684 13.348-26.595 26.578h-82.228c-3.442-15.646-17.422-27.389-34.095-27.389s-30.653 11.743-34.095 27.389h-19.473v-144.049h21.914c4.142 0 7.5-3.358 7.5-7.5s-3.358-7.5-7.5-7.5h-29.414c-4.142 0-7.5 3.358-7.5 7.5v159.049c0 4.142 3.358 7.5 7.5 7.5h26.972c3.443 15.645 17.423 27.388 34.095 27.388s30.652-11.743 34.095-27.388h82.228c3.443 15.645 17.423 27.388 34.095 27.388s30.652-11.743 34.095-27.388h26.327c4.143 0 7.5-3.358 7.5-7.5v-69.52c0-1.307-.342-2.591-.99-3.725zm-185.669 148.497c-10.977 0-19.908-8.922-19.908-19.888 0-10.967 8.931-19.889 19.908-19.889s19.907 8.922 19.907 19.889c.001 10.966-8.93 19.888-19.907 19.888zm197.907-96.908h-39.989v-40.363h16.892zm-47.489 96.908c-10.977 0-19.908-8.922-19.908-19.888 0-10.967 8.931-19.889 19.908-19.889s19.907 8.922 19.907 19.889c.001 10.966-8.93 19.888-19.907 19.888zm34.095-27.388c-2.911-13.23-13.357-23.67-26.595-26.578v-27.942h45.422v54.52z"/><path d="m161.289 397.587c0-.026-.012-3.12-2.196-5.304l-21.38-21.371c-2.93-2.928-7.679-2.927-10.607.002-2.928 2.93-2.927 7.678.002 10.607l8.57 8.566h-62.983c-4.142 0-7.5 3.358-7.5 7.5 0 4.142 3.358 7.5 7.5 7.5h62.983l-8.571 8.567c-2.93 2.928-2.931 7.677-.002 10.606 1.464 1.465 3.384 2.198 5.304 2.198 1.919 0 3.838-.732 5.302-2.196l21.376-21.367c2.287-2.287 2.202-5.289 2.202-5.308z"/><path d="m511.01 93.304-31.681-55.363c-1.336-2.334-3.82-3.775-6.51-3.775h-21.241v-26.666c0-4.142-3.357-7.5-7.5-7.5h-26.794c-4.143 0-7.5 3.358-7.5 7.5s3.357 7.5 7.5 7.5h19.294v117.472c-13.238 2.908-23.685 13.347-26.596 26.577h-82.227c-3.443-15.645-17.422-27.388-34.095-27.388s-30.652 11.743-34.095 27.388h-19.472v-144.049h142.588c4.143 0 7.5-3.358 7.5-7.5s-3.357-7.5-7.5-7.5h-150.088c-4.142 0-7.5 3.358-7.5 7.5v159.049c0 4.142 3.358 7.5 7.5 7.5h26.972c3.442 15.645 17.422 27.388 34.095 27.388s30.652-11.743 34.095-27.388h82.227c3.443 15.645 17.423 27.388 34.096 27.388s30.652-11.743 34.095-27.388h26.327c4.143 0 7.5-3.358 7.5-7.5v-69.52c0-1.306-.342-2.591-.99-3.725zm-217.35 93.134c-10.977 0-19.907-8.922-19.907-19.888s8.931-19.888 19.907-19.888 19.907 8.922 19.907 19.888-8.93 19.888-19.907 19.888zm197.907-96.909h-39.989v-40.363h16.892zm-47.489 96.909c-10.978 0-19.908-8.922-19.908-19.888s8.931-19.888 19.908-19.888 19.907 8.922 19.907 19.888-8.93 19.888-19.907 19.888zm34.095-27.389c-2.911-13.23-13.357-23.669-26.595-26.577v-27.943h45.422v54.52z"/><path d="m352.197 113.698c1.465 1.465 3.385 2.198 5.305 2.198 1.919 0 3.838-.732 5.302-2.195l21.369-21.359c1.283-1.277 2.106-3.014 2.201-4.944 0-.007 0-.014.001-.021.003-.055.005-.109.006-.164.002-.063.002-.125.002-.188s-.001-.125-.002-.188c-.001-.055-.004-.109-.006-.164 0-.007 0-.014-.001-.021-.095-1.94-.927-3.686-2.222-4.964l-21.348-21.339c-2.929-2.928-7.678-2.927-10.606.002-2.928 2.93-2.927 7.678.003 10.607l8.57 8.567h-62.982c-4.143 0-7.5 3.358-7.5 7.5s3.357 7.5 7.5 7.5h62.982l-8.57 8.566c-2.93 2.929-2.931 7.678-.004 10.607z"/></g></g></svg>