<svg id="Capa_1" data-name="Capa 1" xmlns="http://www.w3.org/2000/svg" viewBox="0 0 37.72 37.5"><defs><style>.cls-1{fill:#fff;}.cls-2{fill:#f93258;stroke:#f93258;stroke-miterlimit:10;}</style></defs><title>svg</title><circle class="cls-1" cx="18.67" cy="18.76" r="18.24"/><path class="cls-2" d="M19,17.34a5.55,5.55,0,1,1,5.55-5.55A5.55,5.55,0,0,1,19,17.34ZM19,7.15a4.65,4.65,0,1,0,4.64,4.64A4.64,4.64,0,0,0,19,7.15Z"/><path class="cls-2" d="M27.84,29.12a.45.45,0,0,1-.45-.45,8.43,8.43,0,1,0-16.85,0,.45.45,0,0,1-.45.45.45.45,0,0,1-.45-.45,9.33,9.33,0,1,1,18.65,0A.45.45,0,0,1,27.84,29.12Z"/></svg>